<?xml version="1.0" encoding="iso-8859-1"?>
<!-- Generator: Adobe Illustrator 19.0.0, SVG Export Plug-In . SVG Version: 6.00 Build 0)  -->
<svg version="1.1" id="Capa_1" xmlns="http://www.w3.org/2000/svg" xmlns:xlink="http://www.w3.org/1999/xlink" x="0px" y="0px"
	 viewBox="0 0 512 512" style="enable-background:new 0 0 512 512;" xml:space="preserve">
<g>
	<g>
		<path d="M422,66V36h-30v30H120V36H90v30H0v410h443.213L512,407.213V66H422z M482,386h-60v60H30V186h452V386z M482,156H30V96h60v30
			h30V96h272v30h30V96h60V156z"/>
	</g>
</g>
<g>
	<g>
		<rect x="271" y="226" width="60" height="40"/>
	</g>
</g>
<g>
	<g>
		<rect x="181" y="226" width="60" height="40"/>
	</g>
</g>
<g>
	<g>
		<rect x="361" y="226" width="60" height="40"/>
	</g>
</g>
<g>
	<g>
		<rect x="271" y="296" width="60" height="40"/>
	</g>
</g>
<g>
	<g>
		<rect x="181" y="296" width="60" height="40"/>
	</g>
</g>
<g>
	<g>
		<rect x="91" y="296" width="60" height="40"/>
	</g>
</g>
<g>
	<g>
		<rect x="361" y="296" width="60" height="40"/>
	</g>
</g>
<g>
	<g>
		<rect x="271" y="366" width="60" height="40"/>
	</g>
</g>
<g>
	<g>
		<rect x="181" y="366" width="60" height="40"/>
	</g>
</g>
<g>
	<g>
		<rect x="91" y="366" width="60" height="40"/>
	</g>
</g>
<g>
</g>
<g>
</g>
<g>
</g>
<g>
</g>
<g>
</g>
<g>
</g>
<g>
</g>
<g>
</g>
<g>
</g>
<g>
</g>
<g>
</g>
<g>
</g>
<g>
</g>
<g>
</g>
<g>
</g>
</svg>
