<svg height="512" viewBox="0 0 128 128" width="512" xmlns="http://www.w3.org/2000/svg"><g><path d="m18 93.173h92v6.219h-92z" fill="#ca7af3"/><path d="m18 99.392h92v10.608h-92z" fill="#a151d8"/><path d="m57.603 45.185h16.446v6.251h-16.446z" fill="#fdbb00" transform="matrix(.707 .707 -.707 .707 53.441 -32.396)"/><path d="m31.954 82.012a6.855 6.855 0 0 1 .119-9.81l27.256-25.968 8.4 8.4-25.965 27.26a6.856 6.856 0 0 1 -9.81.118z" fill="#5a5a5a"/><path d="m93.582 47.638a2.164 2.164 0 0 0 -3.062 0l-1.72-1.725a5.15 5.15 0 0 1 -1.47-3 5.15 5.15 0 0 0 -1.47-3l-21.916-21.913-3.819 3.82.1.2a12.1 12.1 0 0 1 -2.225 14.042l15.851 15.853a5.15 5.15 0 0 0 3 1.47 5.153 5.153 0 0 1 3 1.47l1.725 1.725a2.166 2.166 0 0 0 0 3.063l4.471 4.471 12-12.005z" fill="#ececf1"/></g></svg>