<svg id="Layer_1" enable-background="new 0 0 512 512" height="512" viewBox="0 0 512 512" width="512" xmlns="http://www.w3.org/2000/svg"><path d="m512 256v-90h-512v90h61v30h-61v90h61v30h-61v90h512v-90h-61v-30h61v-90h-61v-30z" fill="#fed2a4"/><path d="m451 256v30h61v90h-61v30h61v90h-256v-330h256v90z" fill="#ffbd86"/><path d="m30 316h91v30h-91z" fill="#fdbf00"/><path d="m271 316h90v30h-90z" fill="#ff9100"/><path d="m331 376h90v30h-90z" fill="#ff9100"/><g fill="#fdbf00"><path d="m151 316h90v30h-90z"/><path d="m91 376h90v30h-90z"/><path d="m211 376h90v30h-90z"/><path d="m91 256h330v30h-330z"/><path d="m30 436h91v30h-91z"/><path d="m151 436h90v30h-90z"/></g><path d="m271 436h90v30h-90z" fill="#ff9100"/><path d="m391 436h91v30h-91z" fill="#ff9100"/><path d="m391 316h91v30h-91z" fill="#ff9100"/><path d="m30 196h452v30h-452z" fill="#fdbf00"/><path d="m256 376h45v30h-45z" fill="#ff9100"/><path d="m256 256h165v30h-165z" fill="#ff9100"/><path d="m256 196h226v30h-226z" fill="#ff9100"/><path d="m346 46c-8.401 0-15-6.601-15-15v-15h-150v15c0 8.399-6.599 15-15 15h-45v101.4c0 79.499 54 148.2 131.4 167.699l3.6.901 3.6-.901c77.4-19.499 131.4-88.2 131.4-167.699v-101.4z" fill="#ff637b"/><path d="m391 46v101.4c0 79.499-54 148.2-131.4 167.699l-3.6.901v-300h75v15c0 8.399 6.599 15 15 15z" fill="#e63950"/><path d="m321.099 101.8c-11.999-4.2-22.5-11.4-30.899-20.7l-4.5-5.1h-59.4l-4.501 5.099c-8.399 9.3-18.9 16.5-30.899 20.7l-9.901 3.6v42.001c0 45.599 27.001 86.699 69.3 104.399l5.7 2.401 5.7-2.401c42.3-17.7 69.301-58.8 69.301-104.399v-42.001z" fill="#ffda2d"/><path d="m331 105.399v42.001c0 45.599-27.001 86.699-69.3 104.399l-5.7 2.401v-178.2h29.7l4.501 5.099c8.399 9.3 18.9 16.5 30.899 20.7z" fill="#fdbf00"/></svg>