<svg id="icons" enable-background="new 0 0 64 64" height="512" viewBox="0 0 64 64" width="512" xmlns="http://www.w3.org/2000/svg"><path d="m62 49.998c.55 0 1 .45 1 1v3.002c0 .55-.45 1-1 1h-60c-.55 0-1-.45-1-1v-3.002c0-.55.45-1 1-1z" fill="#e6e9ed"/><path d="m1 42h62v10h-62z" fill="#ccd1d9"/><path d="m60 32c1.66 0 3 1.352 3 3.01v6.99h-62v-6.99c0-1.658 1.34-3 3-3v-.01z" fill="#4a89dc"/><g fill="#5d9cec"><path d="m48 32v.01 4.989l-1 1.011h-30l-1-1.011v-4.989-.01c.01-1.1.89-1.99 2-1.99h4c2.21 0 4-1.789 4-4v-11.01c0-3.309 2.69-6 6-6s6 2.691 6 6v11.01c0 2.211 1.79 4 4 4h4c1.11 0 1.99.89 2 1.99zm-14-17c0-1.1-.9-2-2-2s-2 .9-2 2c0 1.111.9 2 2 2s2-.889 2-2z"/><circle cx="17" cy="37" r="1"/><circle cx="47" cy="37" r="1"/></g></svg>