<svg height="511pt" viewBox="0 -18 511.99906 511" width="511pt" xmlns="http://www.w3.org/2000/svg"><path d="m262.785156 365.910156c0-43.066406 24.855469-80.3125 60.691406-97.59375v-262.664062c0-2.832032-2.316406-5.152344-5.152343-5.152344h-313.171875c-2.835938 0-5.152344 2.320312-5.152344 5.152344v438.589844c0 2.832031 2.316406 5.152343 5.152344 5.152343h296.472656c-23.691406-19.796875-38.839844-49.867187-38.839844-83.484375zm0 0" fill="#89c947"/><path d="m284.414062 102.90625c0 2.835938-2.320312 5.152344-5.152343 5.152344h-235.046875c-2.832032 0-5.152344-2.316406-5.152344-5.152344v-63.023438c0-2.832031 2.320312-5.152343 5.152344-5.152343h235.046875c2.832031 0 5.152343 2.320312 5.152343 5.152343zm0 0" fill="#fff"/><path d="m102.84375 177.71875c0 2.832031-2.320312 5.152344-5.152344 5.152344h-53.476562c-2.832032 0-5.152344-2.320313-5.152344-5.152344v-33.246094c0-2.832031 2.320312-5.152344 5.152344-5.152344h53.476562c2.832032 0 5.152344 2.320313 5.152344 5.152344zm0 0" fill="#fb8276"/><path d="m193.628906 177.71875c0 2.832031-2.320312 5.152344-5.152344 5.152344h-53.476562c-2.832031 0-5.152344-2.320313-5.152344-5.152344v-33.246094c0-2.832031 2.320313-5.152344 5.152344-5.152344h53.476562c2.832032 0 5.152344 2.320313 5.152344 5.152344zm0 0" fill="#fb8276"/><path d="m284.414062 177.71875c0 2.832031-2.320312 5.152344-5.152343 5.152344h-53.476563c-2.832031 0-5.152344-2.320313-5.152344-5.152344v-33.246094c0-2.832031 2.320313-5.152344 5.152344-5.152344h53.476563c2.832031 0 5.152343 2.320313 5.152343 5.152344zm0 0" fill="#fb8276"/><g fill="#fff"><path d="m102.84375 252.300781c0 2.835938-2.320312 5.15625-5.152344 5.15625h-53.476562c-2.832032 0-5.152344-2.320312-5.152344-5.15625v-33.242187c0-2.832032 2.320312-5.152344 5.152344-5.152344h53.476562c2.832032 0 5.152344 2.320312 5.152344 5.152344zm0 0"/><path d="m193.628906 252.300781c0 2.835938-2.320312 5.15625-5.152344 5.15625h-53.476562c-2.832031 0-5.152344-2.320312-5.152344-5.15625v-33.242187c0-2.832032 2.320313-5.152344 5.152344-5.152344h53.476562c2.832032 0 5.152344 2.320312 5.152344 5.152344zm0 0"/><path d="m284.414062 252.300781c0 2.835938-2.320312 5.15625-5.152343 5.15625h-53.476563c-2.832031 0-5.152344-2.320312-5.152344-5.15625v-33.242187c0-2.832032 2.320313-5.152344 5.152344-5.152344h53.476563c2.832031 0 5.152343 2.320312 5.152343 5.152344zm0 0"/><path d="m102.84375 326.886719c0 2.835937-2.320312 5.152343-5.152344 5.152343h-53.476562c-2.832032 0-5.152344-2.316406-5.152344-5.152343v-33.242188c0-2.835937 2.320312-5.152343 5.152344-5.152343h53.476562c2.832032 0 5.152344 2.316406 5.152344 5.152343zm0 0"/><path d="m193.628906 326.886719c0 2.835937-2.320312 5.152343-5.152344 5.152343h-53.476562c-2.832031 0-5.152344-2.316406-5.152344-5.152343v-33.242188c0-2.835937 2.320313-5.152343 5.152344-5.152343h53.476562c2.832032 0 5.152344 2.316406 5.152344 5.152343zm0 0"/><path d="m102.84375 401.472656c0 2.832032-2.320312 5.152344-5.152344 5.152344h-53.476562c-2.832032 0-5.152344-2.320312-5.152344-5.152344v-33.242187c0-2.835938 2.320312-5.15625 5.152344-5.15625h53.476562c2.832032 0 5.152344 2.320312 5.152344 5.15625zm0 0"/><path d="m193.628906 401.472656c0 2.832032-2.320312 5.152344-5.152344 5.152344h-53.476562c-2.832031 0-5.152344-2.320312-5.152344-5.152344v-33.242187c0-2.835938 2.320313-5.15625 5.152344-5.15625h53.476562c2.832032 0 5.152344 2.320312 5.152344 5.15625zm0 0"/></g><path d="m262.785156 365.910156c0-24.527344 8.066406-47.164062 21.628906-65.304687v-6.960938c0-2.835937-2.320312-5.152343-5.152343-5.152343h-53.476563c-2.832031 0-5.152344 2.316406-5.152344 5.152343v107.828125c0 2.832032 2.320313 5.152344 5.152344 5.152344h44.824219c-5.039063-12.570312-7.824219-26.316406-7.824219-40.714844zm0 0" fill="#75eae7"/><path d="m475.148438 365.910156c0 60.125-47.769532 108.863282-106.683594 108.863282-58.914063 0-106.679688-48.738282-106.679688-108.863282 0-60.128906 47.765625-108.871094 106.679688-108.871094 58.914062.003907 106.683594 48.742188 106.683594 108.871094zm0 0" fill="#fcb400"/><path d="m445.296875 365.910156c0 43.300782-34.402344 78.402344-76.832031 78.402344-42.433594 0-76.832032-35.101562-76.832032-78.402344 0-43.304687 34.398438-78.410156 76.832032-78.410156 42.429687 0 76.832031 35.105469 76.832031 78.410156zm0 0" fill="#fcdb67"/><path d="m379.863281 357.609375h-22.796875c-4.445312 0-8.0625-3.761719-8.0625-8.382813 0-4.621093 3.617188-8.378906 8.0625-8.378906h29.152344c4.140625 0 7.5-3.359375 7.5-7.5 0-4.144531-3.359375-7.5-7.5-7.5h-10.253906v-7.976562c0-4.144532-3.355469-7.503906-7.5-7.503906-4.140625 0-7.5 3.359374-7.5 7.503906v7.976562h-3.898438c-12.71875 0-23.066406 10.488282-23.066406 23.378906 0 12.894532 10.347656 23.382813 23.066406 23.382813h22.796875c4.449219 0 8.066407 3.761719 8.066407 8.382813 0 4.621093-3.617188 8.378906-8.066407 8.378906h-34.523437c-4.140625 0-7.5 3.359375-7.5 7.5 0 4.144531 3.359375 7.5 7.5 7.5h15.625v4.765625c0 4.140625 3.359375 7.5 7.5 7.5 4.144531 0 7.5-3.359375 7.5-7.5v-4.765625h3.898437c12.71875 0 23.070313-10.488282 23.070313-23.378906 0-12.894532-10.351563-23.382813-23.070313-23.382813zm0 0" fill="#775436"/><path d="m256.234375 96.035156h-3.933594c-8.472656 0-15.363281-6.898437-15.363281-15.371094v-19.671874c0-8.476563 6.890625-15.371094 15.363281-15.371094h3.933594c8.472656 0 15.363281 6.894531 15.363281 15.371094v19.671874c0 8.476563-6.890625 15.371094-15.363281 15.371094zm-3.933594-35.410156c-.199219 0-.363281.164062-.363281.367188v19.671874c0 .203126.164062.367188.363281.367188h3.933594c.199219 0 .359375-.164062.359375-.367188v-19.671874c0-.203126-.160156-.367188-.359375-.367188zm0 0" fill="#9ea7af"/><path d="m422.867188 235.484375c-37.257813 0-67.574219-30.59375-67.574219-68.199219 0-36.523437 28.304687-66.449218 64.4375-68.125.042969-.003906.089843-.003906.136719-.003906.769531 0 1.511718.292969 2.074218.828125.59375.566406.925782 1.351563.925782 2.171875v65.128906h64.507812c.820312 0 1.605469.335938 2.171875.925782.5625.59375.863281 1.390624.828125 2.210937-1.644531 36.484375-31.296875 65.0625-67.507812 65.0625zm0 0" fill="#75eae7"/><path d="m447.492188 145.765625c-1.65625 0-3-1.34375-3-3v-62.132813c0-.820312.335937-1.601562.929687-2.167968.558594-.535156 1.300781-.832032 2.070313-.832032.046874 0 .09375 0 .140624.003907 16.828126.78125 32.679688 7.863281 44.640626 19.945312 11.953124 12.074219 18.957031 28.070313 19.722656 45.046875.035156.816406-.261719 1.617188-.828125 2.207032-.566407.59375-1.351563.925781-2.171875.925781h-61.503906zm0 0" fill="#ffc502"/></svg>