<?xml version="1.0" encoding="iso-8859-1"?>
<!-- Generator: Adobe Illustrator 19.0.0, SVG Export Plug-In . SVG Version: 6.00 Build 0)  -->
<svg version="1.1" id="Capa_1" xmlns="http://www.w3.org/2000/svg" xmlns:xlink="http://www.w3.org/1999/xlink" x="0px" y="0px"
	 viewBox="0 0 512 512" style="enable-background:new 0 0 512 512;" xml:space="preserve">
<path style="fill:#82D2FF;" d="M314.244,453.755c-109.042,0-197.755-88.713-197.755-197.755S205.202,58.245,314.244,58.245
	C423.287,58.245,512,146.958,512,256S423.287,453.755,314.244,453.755z"/>
<path style="fill:#08B7FC;" d="M314.244,453.755c0-121.759,0-345.93,0-395.511C423.287,58.245,512,146.958,512,256
	S423.287,453.755,314.244,453.755z"/>
<path style="fill:#F1F1F2;" d="M314.244,88.245c-92.5,0-167.755,75.255-167.755,167.755s75.254,167.755,167.755,167.755
	S482,348.5,482,256S406.745,88.245,314.244,88.245z"/>
<path style="fill:#E6E6E6;" d="M314.244,88.245c0,35.753,0,227.756,0,335.511C406.745,423.755,482,348.5,482,256
	S406.745,88.245,314.244,88.245z"/>
<g>
	<rect x="27.689" y="181" style="fill:#FFDB0C;" width="58.8" height="30"/>
	<rect x="27.689" y="301" style="fill:#FFDB0C;" width="58.8" height="30"/>
	<rect y="241" style="fill:#FFDB0C;" width="86.49" height="30"/>
</g>
<polygon style="fill:#4D4D4D;" points="371.238,331.996 293.93,279.313 293.93,166.557 323.93,166.557 323.93,263.454 
	388.133,307.205 "/>
<g>
</g>
<g>
</g>
<g>
</g>
<g>
</g>
<g>
</g>
<g>
</g>
<g>
</g>
<g>
</g>
<g>
</g>
<g>
</g>
<g>
</g>
<g>
</g>
<g>
</g>
<g>
</g>
<g>
</g>
</svg>
