<svg height="512pt" viewBox="0 -31 512 512" width="512pt" xmlns="http://www.w3.org/2000/svg"><path d="m301 345.011719v89.199219h-90v-89.199219c0-8.398438 6.597656-15 15-15h60c8.402344 0 15 6.601562 15 15zm0 0" fill="#d97f4a"/><path d="m301 345.011719v89.199219h-45v-104.199219h30c8.402344 0 15 6.601562 15 15zm0 0" fill="#d55f05"/><path d="m452 15.011719v60c0 56.304687-43.492188 97.796875-86.699219 103.199219-.425781.214843-10.355469 1.800781-18.300781 1.800781-26.699219 0-50.800781 14.101562-64.300781 35.101562h-53.398438c-13.5-21-37.601562-35.101562-64.300781-35.101562-60.476562 0-105-48.464844-105-105v-60c0-6 3.601562-11.398438 9.300781-13.800781 5.699219-2.398438 12-1.1992192 16.199219 3.300781l38.699219 38.699219c11.101562 10.800781 25.5 16.800781 40.800781 16.800781 38.402344 0 72.699219 21 91 51.898437 18.300781-30.898437 52.597656-51.898437 91-51.898437 15.300781 0 29.699219-6 40.800781-16.800781l38.699219-38.699219c4.199219-4.5000002 10.5-5.699219 16.199219-3.300781 5.699219 2.402343 9.300781 7.800781 9.300781 13.800781zm0 0" fill="#6b0"/><path d="m282.699219 215.113281h-26.699219v-103.199219c18.300781-30.902343 52.597656-51.902343 91-51.902343 15.300781 0 29.699219-6 40.800781-16.796875l38.699219-38.703125c4.199219-4.5000002 10.5-5.699219 16.199219-3.300781 5.699219 2.402343 9.300781 7.800781 9.300781 13.800781v60c0 56.304687-43.492188 97.796875-86.699219 103.203125-.425781.210937-10.355469 1.796875-18.300781 1.796875-26.699219 0-50.800781 14.101562-64.300781 35.101562zm0 0" fill="#009954"/><path d="m482 105.011719v60c0 57.902343-47.101562 105-105 105h-30c-29.398438 0-55.601562 17.101562-67.898438 42h-46.203124c-12.296876-24.898438-38.5-42-67.898438-42h-30c-57.898438 0-105-47.097657-105-105v-60c0-5.398438 3-10.5 7.800781-13.199219 5.097657-2.699219 10.800781-2.402344 15.601563.597656l65.097656 43.5c13.292969 9.496094 33.59375 14.101563 46.5 14.101563 38.402344 0 72.699219 21 91 51.898437 18.300781-30.898437 52.601562-51.898437 91-51.898437 6.359375 0 10.667969-1.199219 12.902344-1.199219 14.578125-4.832031 17.300781-1.539062 33.597656-12.601562l65.101562-43.800782c4.800782-2.996094 10.5-3.296875 15.597657-.597656 4.800781 2.699219 7.800781 7.800781 7.800781 13.199219zm0 0" fill="#9cdd05"/><path d="m482 105.011719v60c0 57.902343-47.101562 105-105 105h-30c-29.398438 0-55.601562 17.101562-67.898438 42h-23.101562v-110.101563c18.300781-30.898437 52.597656-51.898437 91-51.898437 6.359375 0 10.667969-1.199219 12.898438-1.199219 14.582031-4.832031 17.300781-1.539062 33.601562-12.601562l65.097656-43.800782c4.800782-2.996094 10.503906-3.296875 15.601563-.597656 4.800781 2.699219 7.800781 7.800781 7.800781 13.199219zm0 0" fill="#6b0"/><path d="m504.199219 181.8125c-5.097657-2.699219-10.800781-2.402344-15.601563.597656l-75 50.101563c-7.199218 4.800781-15.898437 7.5-24.898437 7.5h-41.699219c-38.402344 0-72.699219 21-91 51.898437-18.300781-30.898437-52.597656-51.898437-91-51.898437h-41.699219c-9 0-17.699219-2.699219-24.898437-7.800781l-75-49.800782c-4.800782-2.996094-10.503906-3.296875-15.601563-.597656-4.800781 2.699219-7.800781 7.800781-7.800781 13.199219v60c0 57.902343 47.101562 105 105 105h302c57.898438 0 105-47.097657 105-105v-60c0-5.398438-3-10.5-7.800781-13.199219zm0 0" fill="#c3ea21"/><path d="m512 195.011719v60c0 57.902343-47.101562 105-105 105h-151v-68.101563c18.300781-30.898437 52.597656-51.898437 91-51.898437h41.699219c9 0 17.699219-2.699219 24.898437-7.5l75-50.101563c4.800782-2.996094 10.503906-3.296875 15.601563-.597656 4.800781 2.699219 7.800781 7.800781 7.800781 13.199219zm0 0" fill="#9cdd05"/><path d="m391 436.011719c0 8.398437-6.597656 15-15 15h-240c-8.402344 0-15-6.601563-15-15 0-8.398438 6.597656-15 15-15h240c8.402344 0 15 6.601562 15 15zm0 0" fill="#c3ea21"/><path d="m391 436.011719c0 8.398437-6.597656 15-15 15h-120v-30h120c8.402344 0 15 6.601562 15 15zm0 0" fill="#9cdd05"/></svg>