<?xml version="1.0" encoding="iso-8859-1"?>
<!-- Generator: Adobe Illustrator 19.0.0, SVG Export Plug-In . SVG Version: 6.00 Build 0)  -->
<svg version="1.1" id="Capa_1" xmlns="http://www.w3.org/2000/svg" xmlns:xlink="http://www.w3.org/1999/xlink" x="0px" y="0px"
	 viewBox="0 0 512 512" style="enable-background:new 0 0 512 512;" xml:space="preserve">
<path style="fill:#1BA9EF;" d="M466.7,434.599c0.901,4.2-0.3,8.699-3.3,12.001c-2.701,3.6-6.899,5.4-11.4,5.4H60
	c-4.501,0-8.699-1.8-11.4-5.4c-2.999-3.301-4.2-7.8-3.3-12.001l15-90c0-0.3,0-0.3,0-0.3l0.601,0.3l42.9-12.599h322.4l24.899,12.599
	l0.601-0.3c0,0,0,0,0,0.3L466.7,434.599z"/>
<g>
	<path style="fill:#1689FC;" d="M466.7,434.599c0.901,4.2-0.3,8.699-3.3,12.001c-2.701,3.6-6.899,5.4-11.4,5.4H256V332h170.2
		l24.899,12.599l0.601-0.3c0,0,0,0,0,0.3L466.7,434.599z"/>
	<path style="fill:#1689FC;" d="M345.7,434.599c0.901,4.2-0.3,8.699-3.3,12.001c-2.701,3.6-6.899,5.4-11.4,5.4H181
		c-4.501,0-8.699-1.8-11.4-5.4c-2.999-3.301-4.2-7.8-3.3-12.001l15-90L213.701,332h84.598l32.401,12.599L345.7,434.599z"/>
</g>
<path style="fill:#136EF1;" d="M330.7,344.599l15,90c0.901,4.2-0.3,8.699-3.3,12.001c-2.701,3.6-6.899,5.4-11.4,5.4h-75V332h42.299
	L330.7,344.599z"/>
<path style="fill:#1DE8F1;" d="M451.099,344.599H60.901c0.599-3.9,2.399-7.8,5.698-10.201l181-120L256,230.6l1.5,2.999l6.901-19.2
	l181,120C448.7,336.799,450.5,340.699,451.099,344.599z"/>
<path style="fill:#1BD9DE;" d="M451.099,344.599H256v-114l1.5,2.999l6.901-19.2l181,120
	C448.7,336.799,450.5,340.699,451.099,344.599z"/>
<path style="fill:#1DE8F1;" d="M271,135v92c0,8.399-6.599,15-15,15s-15-6.601-15-15v-92c0-8.401,6.599-15,15-15S271,126.599,271,135
	z"/>
<path style="fill:#20D3D3;" d="M256,242V120c8.401,0,15,6.599,15,15v92C271,235.399,264.401,242,256,242z"/>
<path style="fill:#FF4A4A;" d="M328.9,67.2c-2.999-4.501-7.8-7.2-12.9-7.2H196c-11.1,0-18.3,11.7-13.5,21.599l30,60
	C215.2,146.7,220.3,150,226,150h60c5.7,0,10.8-3.3,13.5-8.401l30-60C331.601,77.1,331.601,71.4,328.9,67.2z"/>
<path style="fill:#E61E14;" d="M286,150h-30V60h60c5.099,0,9.901,2.699,12.9,7.2c2.701,4.2,2.701,9.901,0.601,14.399l-30,60
	C296.8,146.7,291.7,150,286,150z"/>
<path style="fill:#57555C;" d="M361,19.499V45c0,24.899-20.099,45-45,45H196c-24.901,0-45-20.101-45-45V19.499H361z"/>
<path style="fill:#3C3A41;" d="M361,19.499V45c0,24.899-20.099,45-45,45h-60V19.499H361z"/>
<path style="fill:#787780;" d="M512,15c0,8.399-6.599,15-15,15H15C6.599,30,0,23.399,0,15C0,6.599,6.599,0,15,0h482
	C505.401,0,512,6.599,512,15z"/>
<path style="fill:#57555C;" d="M497,30H256V0h241c8.401,0,15,6.599,15,15C512,23.399,505.401,30,497,30z"/>
<path style="fill:#1BD9DE;" d="M330.399,344.599H181.601c0.3-1.5,0.3-2.999,0.899-4.2l60-120c2.701-5.099,8.101-7.8,13.5-7.8
	c5.399,0,10.8,2.701,13.5,7.8l60,120C330.099,341.6,330.099,343.1,330.399,344.599z"/>
<path style="fill:#20D3D3;" d="M330.399,344.599H256v-132c5.4,0,10.8,2.701,13.5,7.8l60,120
	C330.099,341.6,330.099,343.1,330.399,344.599z"/>
<path style="fill:#57555C;" d="M467,422H45c-24.901,0-45,20.099-45,45v30c0,8.399,6.599,15,15,15h482c8.401,0,15-6.601,15-15v-30
	C512,442.099,491.901,422,467,422z"/>
<path style="fill:#3C3A41;" d="M512,467v30c0,8.399-6.599,15-15,15H256v-90h211C491.901,422,512,442.099,512,467z"/>
<g>
</g>
<g>
</g>
<g>
</g>
<g>
</g>
<g>
</g>
<g>
</g>
<g>
</g>
<g>
</g>
<g>
</g>
<g>
</g>
<g>
</g>
<g>
</g>
<g>
</g>
<g>
</g>
<g>
</g>
</svg>
