<?xml version="1.0" encoding="iso-8859-1"?><!DOCTYPE svg PUBLIC "-//W3C//DTD SVG 1.1//EN" "http://www.w3.org/Graphics/SVG/1.1/DTD/svg11.dtd"><svg viewBox="0 0 788 788" xmlns="http://www.w3.org/2000/svg" xmlns:xlink="http://www.w3.org/1999/xlink"><style>:root>svg{display:none}:root>svg:target{display:block}</style><svg viewBox="0 0 512 512" id="calendar" xmlns="http://www.w3.org/2000/svg"><path d="M422 66V36h-30v30H120V36H90v30H0v410h443.213L512 407.213V66h-90zm60 320h-60v60H30V186h452v200zm0-230H30V96h60v30h30V96h272v30h30V96h60v60z"/><path d="M271 226h60v40h-60zM181 226h60v40h-60zM361 226h60v40h-60zM271 296h60v40h-60zM181 296h60v40h-60zM91 296h60v40H91zM361 296h60v40h-60zM271 366h60v40h-60zM181 366h60v40h-60zM91 366h60v40H91z"/></svg><svg viewBox="0 0 512 512" id="call" xmlns="http://www.w3.org/2000/svg"><path d="M512 256c0 141.387-114.613 256-256 256-42.863 0-83.258-10.531-118.742-29.14a257.361 257.361 0 01-34.45-21.735 253.681 253.681 0 01-16.417-13.375C33.406 400.855 0 332.328 0 256 0 114.613 114.613 0 256 0s256 114.613 256 256zm0 0" fill="#ffe152"/><path d="M382.121 449.574v29.25a254.035 254.035 0 01-83.906 29.703 256.011 256.011 0 01-19.563 2.477c-4.105.367-8.242.629-12.414.785-3.394.145-6.812.207-10.238.207-7.648 0-15.203-.332-22.676-.992a254.505 254.505 0 01-103.445-32.18v-29.25c0-44.008 29.887-81.039 70.48-91.898a94.185 94.185 0 0116.875-2.914c2.57-.211 5.16-.313 7.786-.313h61.953c6.925 0 13.675.73 20.175 2.14a79.904 79.904 0 014.387 1.055c.031.012.055.012.086.024a94.681 94.681 0 0129.54 13.707c24.753 17.18 40.96 45.797 40.96 78.2zm0 0" fill="#3d4159"/><path d="M311.852 356.59l-.23 1.078-32.97 153.336c-7.46.66-15.023.992-22.652.992-7.648 0-15.203-.332-22.676-.992L200.36 357.676l-.23-1.086zm0 0" fill="#f2f0ec"/><path d="M281.535 388.773l-25.539 40.961-25.539-40.96" fill="#f74f4f"/><path d="M279.574 510.914A255.808 255.808 0 01256 512c-7.953 0-15.82-.367-23.582-1.078L256 419.078zm0 0" fill="#f74f4f"/><path d="M255.988 393.395l-42.828 23.8-13.031-60.601 26.613-15.676M255.988 393.395l42.832 23.8 13.028-60.601-26.614-15.676" fill="#d8d5d0"/><path d="M341.16 366.152l-27.691 72.223h13.586l-28.84 70.152a256.011 256.011 0 01-19.563 2.477c-4.105.367-8.242.629-12.414.785l45.614-160.422zm0 0M170.508 366.152l27.687 72.223h-13.582l28.84 70.152a255.662 255.662 0 0019.559 2.477c4.105.367 8.246.629 12.414.785l-45.297-159.367zm0 0" fill="#2a2f4f"/><path d="M289.938 317.8v41.657c0 15.25-10.055 28.14-23.907 32.422a33.821 33.821 0 01-10.043 1.516c-18.746 0-33.937-15.192-33.937-33.938v-41.656zm0 0" fill="#eab599"/><path d="M289.938 356.82v2.637c0 15.25-10.055 28.14-23.907 32.422-12.496-3.84-21.89-14.707-23.625-28 2.266.137 4.547.207 6.836.207 6.422 0 12.719-.508 18.848-1.516a115.622 115.622 0 0021.847-5.75zm0 0M162.887 249.535c0 15.711-11.48 28.742-26.512 31.16a31.64 31.64 0 01-5.055.403c-17.437 0-31.566-14.125-31.566-31.563s14.129-31.566 31.566-31.566c1.723 0 3.414.14 5.055.406 15.031 2.418 26.512 15.445 26.512 31.16zm0 0" fill="#f6caae"/><path d="M162.887 249.535c0 15.711-11.48 28.742-26.512 31.16a117.374 117.374 0 01-4.188-31.16c0-10.785 1.458-21.234 4.188-31.16 15.031 2.418 26.512 15.445 26.512 31.16zm0 0" fill="#eab599"/><path d="M142.602 249.535c0 6.23-5.051 11.281-11.282 11.281-6.23 0-11.28-5.05-11.28-11.28 0-6.231 5.05-11.282 11.28-11.282 6.23 0 11.282 5.05 11.282 11.281zm0 0" fill="#eab599"/><path d="M349.102 249.535c0 15.711 11.476 28.742 26.507 31.16 1.645.266 3.332.403 5.059.403 17.437 0 31.562-14.125 31.562-31.563s-14.125-31.566-31.562-31.566c-1.727 0-3.414.14-5.059.406-15.03 2.418-26.507 15.445-26.507 31.16zm0 0" fill="#f6caae"/><path d="M349.102 249.535c0 15.711 11.476 28.742 26.507 31.16a117.376 117.376 0 004.192-31.16c0-10.785-1.457-21.234-4.192-31.16-15.03 2.418-26.507 15.445-26.507 31.16zm0 0" fill="#eab599"/><path d="M373.438 188.04v44.722c0 58.441-42.696 106.925-98.598 115.922l-.574.093c-5.946.95-12.047 1.422-18.278 1.422-64.855 0-117.433-52.582-117.433-117.437v-44.723c0-13.656 2.328-26.781 6.632-38.973 16.063-45.707 59.614-78.472 110.801-78.472H256c6.219 0 12.328.48 18.285 1.422 56.176 8.777 99.152 57.382 99.152 116.023zm0 0" fill="#eab599"/><path d="M391.95 249.535c0 6.23-5.052 11.281-11.282 11.281s-11.281-5.05-11.281-11.28c0-6.231 5.05-11.282 11.281-11.282s11.281 5.05 11.281 11.281zm0 0" fill="#eab599"/><path d="M373.438 188.04v44.722c0 58.441-42.696 106.925-98.598 115.922l-.574.093c-56.176-8.777-99.141-57.386-99.141-116.015v-44.723c0-58.64 42.977-107.246 99.16-116.023 56.176 8.777 99.152 57.382 99.152 116.023zm0 0" fill="#f6caae"/><path d="M230.984 225.922c0 7.36-5.964 13.32-13.324 13.32-7.355 0-13.32-5.96-13.32-13.32s5.965-13.324 13.32-13.324c7.36 0 13.324 5.964 13.324 13.324zm0 0M307.652 225.922c0 7.36-5.964 13.32-13.324 13.32-7.355 0-13.32-5.96-13.32-13.32s5.965-13.324 13.32-13.324c7.36 0 13.324 5.964 13.324 13.324zm0 0" fill="#3d4159"/><path d="M228.266 223.57a5.706 5.706 0 11-11.414 0 5.706 5.706 0 1111.414 0zm0 0M305.59 223.57a5.71 5.71 0 01-11.418 0 5.71 5.71 0 0111.418 0zm0 0" fill="#fff"/><path d="M269.316 254.242h-26.644a5.746 5.746 0 01-5.746-5.75 5.746 5.746 0 015.746-5.746h26.644a5.746 5.746 0 015.746 5.746c0 3.176-2.57 5.75-5.746 5.75zm0 0M255.996 290.602c-9.836 0-19.668-2.465-28.633-7.391a5.224 5.224 0 115.032-9.16c14.777 8.125 32.421 8.125 47.199 0a5.224 5.224 0 115.031 9.16c-8.96 4.926-18.797 7.39-28.629 7.39zm0 0" fill="#eab599"/><path d="M373.438 147.453v45.813h-21.86V157.39l-157.781-29.32-33.383-6.208v71.403h-21.86v-45.813c0-52.223 42.329-94.555 94.544-94.555h45.797c1.242 0 2.484.024 3.73.086 50.477 1.942 90.813 43.489 90.813 94.47zm0 0" fill="#2a2f4f"/><path d="M373.438 147.453v45.813h-21.86V157.39l-157.781-29.32c8.695-41.755 44.922-73.395 88.828-75.087 50.477 1.942 90.813 43.489 90.813 94.47zm0 0" fill="#3d4159"/><path d="M228.57 383.645l-10.511 13.667-28.704 7.66-16.949 4.512-13.226-12.191c-.368-.348-.743-.68-1.098-1.035-37.281-34.797-54.898-62.153-71.137-110.5-.168-.469-.324-.95-.48-1.43l-5.633-17.086 11.14-13.562 18.848-22.957 16.774-3.918 2.601 6.613 7.325 18.633 10.605 26.98-13.805 12.602-9.32 8.504c4.273 13.699 25.047 45.965 35.746 55.535l11.598-4.961 17.18-7.379 20.175 20.848 13.93 14.375.012-.008zm0 0" fill="#66baed"/><path d="M189.527 343.336l-17.183 7.375 45.719 46.598 10.507-13.66zm0 0M148.129 279.031l-13.824 12.59-23.493-60.91 16.786-3.906zm0 0" fill="#f2f0ec"/><path d="M189.355 404.973l-16.949 4.511-13.226-12.191c-.368-.348-.743-.68-1.098-1.035-37.281-34.797-54.898-62.153-71.137-110.5-.168-.469-.324-.95-.48-1.43l-5.633-17.086 11.14-13.562s3.551 92.558 97.376 151.28c0 0 .007 0 .007.013zm0 0" fill="#2ba1cf"/><path d="M157.805 344.129l-15.887 15.883a21.573 21.573 0 01-15.328 6.347 21.558 21.558 0 01-15.332-6.343c-8.469-8.47-8.469-22.196 0-30.664l15.883-15.887c8.468-8.465 22.195-8.465 30.664 0a21.734 21.734 0 013.78 5.086c4.415 8.207 3.142 18.652-3.78 25.578zm0 0" fill="#eab599"/><path d="M157.805 344.129l-15.887 15.883a21.573 21.573 0 01-15.328 6.347 21.558 21.558 0 01-10.25-2.562c-4.41-8.207-3.14-18.656 3.781-25.578l15.887-15.887c6.922-6.922 17.37-8.195 25.578-3.781 4.414 8.207 3.14 18.652-3.781 25.578zm0 0" fill="#f6caae"/><path d="M137.258 482.86a257.361 257.361 0 01-34.45-21.735 253.681 253.681 0 01-16.417-13.375 247.343 247.343 0 0115.875-94.531c4.586 1.734 9.183 3.469 13.77 5.203 9.905 3.738 19.812 7.492 29.726 11.23a201.042 201.042 0 00-8.504 113.207zm0 0" fill="#2a2f4f"/><path d="M137.258 482.86a257.361 257.361 0 01-34.45-21.735 247.484 247.484 0 0113.227-102.703c9.906 3.738 19.813 7.492 29.727 11.23a201.042 201.042 0 00-8.504 113.207zm0 0" fill="#3d4159"/><path d="M294.809 17h190.539v143.227h-190.54zm0 0" fill="#f2f0ec"/><path d="M391.605 151.273l-20.46 48.594 89.515-51.148zm0 0" fill="#f2f0ec"/><g fill="#3d4159"><path d="M367.871 88.613c0 7.414-6.012 13.426-13.426 13.426-7.418 0-13.43-6.012-13.43-13.426 0-7.414 6.012-13.425 13.43-13.425 7.414 0 13.426 6.011 13.426 13.425zm0 0M403.504 88.613c0 7.414-6.012 13.426-13.426 13.426s-13.426-6.012-13.426-13.426c0-7.414 6.012-13.425 13.426-13.425s13.426 6.011 13.426 13.425zm0 0M439.14 88.613c0 7.414-6.011 13.426-13.43 13.426-7.413 0-13.425-6.012-13.425-13.426 0-7.414 6.012-13.425 13.426-13.425 7.418 0 13.43 6.011 13.43 13.425zm0 0"/></g></svg><svg viewBox="0 0 348.077 348.077" id="call-answer" xmlns="http://www.w3.org/2000/svg"><path d="M340.273 275.083l-53.755-53.761c-10.707-10.664-28.438-10.34-39.518.744l-27.082 27.076a792.327 792.327 0 01-5.344-2.973c-17.102-9.476-40.509-22.464-65.14-47.113-24.704-24.701-37.704-48.144-47.209-65.257-1.003-1.813-1.964-3.561-2.913-5.221l18.176-18.149 8.936-8.947c11.097-11.1 11.403-28.826.721-39.521L73.39 8.194c-10.682-10.68-28.421-10.356-39.518.744l-15.15 15.237.414.411c-5.08 6.482-9.325 13.958-12.484 22.02C3.74 54.28 1.927 61.603 1.098 68.941-6 127.785 20.89 181.564 93.866 254.541c100.875 100.868 182.167 93.248 185.674 92.876 7.638-.913 14.958-2.738 22.397-5.627 7.992-3.122 15.463-7.361 21.941-12.43l.331.294 15.348-15.029c11.074-11.098 11.393-28.83.716-39.542z"/></svg><svg viewBox="-49 0 512 512" id="cold" xmlns="http://www.w3.org/2000/svg"><path d="M320.023 315.355V62.16c0-34.332-27.828-62.16-62.156-62.16-34.332 0-62.16 27.828-62.16 62.16v253.195c-27.812 19.567-45.984 51.91-45.984 88.5C149.723 463.582 198.14 512 257.867 512c59.727 0 108.145-48.418 108.145-108.145 0-36.59-18.176-68.933-45.989-88.5zm0 0" fill="#d8d8d8"/><path d="M257.867 476.582c-41.183 0-74.687-33.508-74.687-74.687 0-31.274 19.433-59.118 48.593-69.98V62.16c0-14.39 11.704-26.094 26.094-26.094 14.387 0 26.094 11.704 26.094 26.094v269.754c29.156 10.86 48.594 38.703 48.594 69.977 0 41.183-33.504 74.691-74.688 74.691zm0 0" fill="#f3e8d7"/><path d="M231.77 298.848v33.066c-29.157 10.863-48.594 38.707-48.594 69.98 0 41.18 33.508 74.688 74.691 74.688 41.18 0 74.688-33.508 74.688-74.687 0-31.274-19.438-59.118-48.594-69.98v-33.067zm0 0" fill="#69e6ed"/><path d="M283.96 331.914v-33.066h-52.187v33.066s36.075 16.738 36.075 69.98c0 29.598-17.309 55.231-42.336 67.31 9.793 4.726 20.77 7.378 32.355 7.378 41.18 0 74.688-33.508 74.688-74.687 0-31.278-19.438-59.118-48.594-69.98zm0 0" fill="#33d8dd"/><g fill="#0d6e9a"><path d="M406.121 180.219h-44.824a7.726 7.726 0 01-7.727-7.727 7.726 7.726 0 017.727-7.726h44.824a7.725 7.725 0 017.723 7.726 7.723 7.723 0 01-7.723 7.727zm0 0M381.648 117.598h-20.351c-4.27 0-7.727-3.461-7.727-7.727s3.457-7.726 7.727-7.726h20.351c4.266 0 7.727 3.46 7.727 7.726s-3.46 7.727-7.727 7.727zm0 0M388.86 54.977h-27.563c-4.27 0-7.727-3.461-7.727-7.727s3.457-7.727 7.727-7.727h27.562c4.27 0 7.727 3.461 7.727 7.727s-3.457 7.727-7.727 7.727zm0 0M388.86 305.46h-27.563a7.726 7.726 0 01-7.727-7.726 7.724 7.724 0 017.727-7.726h27.562a7.724 7.724 0 017.727 7.726 7.726 7.726 0 01-7.727 7.727zm0 0M381.648 242.84h-20.351c-4.27 0-7.727-3.461-7.727-7.727s3.457-7.726 7.727-7.726h20.351c4.266 0 7.727 3.46 7.727 7.726s-3.46 7.727-7.727 7.727zm0 0"/></g><path d="M151.68 153.895l-13.188-7.383 9.696-3.973a7.723 7.723 0 004.222-10.074 7.728 7.728 0 00-10.078-4.223l-21.062 8.63-27.641-15.477 27.64-15.477 21.063 8.629c.961.39 1.95.578 2.926.578a7.73 7.73 0 002.933-14.879l-9.695-3.973 13.184-7.382a7.725 7.725 0 002.965-10.516c-2.083-3.723-6.79-5.05-10.516-2.969l-13.184 7.383 1.68-10.34a7.721 7.721 0 00-6.387-8.867c-4.207-.687-8.18 2.176-8.863 6.387l-3.652 22.465-28.18 15.78V75.919l17.816-14.164a7.722 7.722 0 001.243-10.856c-2.653-3.34-7.516-3.894-10.856-1.242l-8.203 6.524V41.066a7.726 7.726 0 10-15.453 0V56.18l-8.203-6.52a7.725 7.725 0 10-9.614 12.098l17.817 14.16v32.297L41.91 92.434l-3.652-22.465c-.684-4.211-4.653-7.074-8.863-6.387a7.721 7.721 0 00-6.387 8.867l1.68 10.34-13.184-7.383C7.78 73.324 3.07 74.652.988 78.375a7.724 7.724 0 002.965 10.516l13.188 7.382-9.7 3.973a7.728 7.728 0 005.86 14.3l21.062-8.628 27.64 15.477-27.64 15.476-21.062-8.629a7.725 7.725 0 00-10.078 4.223c-1.618 3.945.273 8.46 4.218 10.074l9.696 3.973-13.184 7.383A7.73 7.73 0 00.984 164.41a7.723 7.723 0 006.75 3.953 7.708 7.708 0 003.77-.984l13.184-7.383-1.68 10.344c-.688 4.21 2.172 8.18 6.387 8.867a7.96 7.96 0 001.246.102c3.722 0 7.004-2.7 7.617-6.489l3.652-22.468 28.18-15.778v32.297l-17.82 14.16a7.725 7.725 0 00-1.239 10.856 7.722 7.722 0 0010.856 1.242l8.203-6.52v15.114a7.723 7.723 0 007.726 7.722 7.725 7.725 0 007.727-7.722v-15.114l8.203 6.52a7.69 7.69 0 004.8 1.68 7.7 7.7 0 006.052-2.922 7.725 7.725 0 00-1.239-10.856l-17.82-14.16v-32.297l28.18 15.778 3.652 22.468c.613 3.793 3.895 6.489 7.617 6.489a7.731 7.731 0 007.637-8.969l-1.684-10.344 13.188 7.383a7.723 7.723 0 0010.516-2.969 7.725 7.725 0 00-2.965-10.515zm0 0" fill="#33d8dd"/></svg><svg viewBox="0 -18 511.999 511" id="cost" xmlns="http://www.w3.org/2000/svg"><path d="M262.785 365.91c0-43.066 24.856-80.312 60.692-97.594V5.652c0-2.832-2.317-5.152-5.153-5.152H5.152C2.316.5 0 2.82 0 5.652v438.59c0 2.832 2.316 5.153 5.152 5.153h296.473c-23.691-19.797-38.84-49.868-38.84-83.485zm0 0" fill="#89c947"/><path d="M284.414 102.906c0 2.836-2.32 5.153-5.152 5.153H44.215c-2.832 0-5.152-2.317-5.152-5.153V39.883c0-2.832 2.32-5.153 5.152-5.153h235.047c2.832 0 5.152 2.32 5.152 5.153zm0 0" fill="#fff"/><path d="M102.844 177.719c0 2.832-2.32 5.152-5.153 5.152H44.215c-2.832 0-5.153-2.32-5.153-5.152v-33.246c0-2.832 2.32-5.153 5.153-5.153H97.69c2.832 0 5.153 2.32 5.153 5.153zm0 0M193.629 177.719c0 2.832-2.32 5.152-5.152 5.152H135c-2.832 0-5.152-2.32-5.152-5.152v-33.246c0-2.832 2.32-5.153 5.152-5.153h53.477c2.832 0 5.152 2.32 5.152 5.153zm0 0M284.414 177.719c0 2.832-2.32 5.152-5.152 5.152h-53.477c-2.832 0-5.152-2.32-5.152-5.152v-33.246c0-2.832 2.32-5.153 5.152-5.153h53.477c2.832 0 5.152 2.32 5.152 5.153zm0 0" fill="#fb8276"/><g fill="#fff"><path d="M102.844 252.3c0 2.837-2.32 5.157-5.153 5.157H44.215c-2.832 0-5.153-2.32-5.153-5.156v-33.242c0-2.832 2.32-5.153 5.153-5.153H97.69c2.832 0 5.153 2.32 5.153 5.153zm0 0M193.629 252.3c0 2.837-2.32 5.157-5.152 5.157H135c-2.832 0-5.152-2.32-5.152-5.156v-33.242c0-2.832 2.32-5.153 5.152-5.153h53.477c2.832 0 5.152 2.32 5.152 5.153zm0 0M284.414 252.3c0 2.837-2.32 5.157-5.152 5.157h-53.477c-2.832 0-5.152-2.32-5.152-5.156v-33.242c0-2.832 2.32-5.153 5.152-5.153h53.477c2.832 0 5.152 2.32 5.152 5.153zm0 0M102.844 326.887c0 2.836-2.32 5.152-5.153 5.152H44.215c-2.832 0-5.153-2.316-5.153-5.152v-33.242c0-2.836 2.32-5.153 5.153-5.153H97.69c2.832 0 5.153 2.317 5.153 5.153zm0 0M193.629 326.887c0 2.836-2.32 5.152-5.152 5.152H135c-2.832 0-5.152-2.316-5.152-5.152v-33.242c0-2.836 2.32-5.153 5.152-5.153h53.477c2.832 0 5.152 2.317 5.152 5.153zm0 0M102.844 401.473c0 2.832-2.32 5.152-5.153 5.152H44.215c-2.832 0-5.153-2.32-5.153-5.152V368.23c0-2.835 2.32-5.156 5.153-5.156H97.69c2.832 0 5.153 2.32 5.153 5.156zm0 0M193.629 401.473c0 2.832-2.32 5.152-5.152 5.152H135c-2.832 0-5.152-2.32-5.152-5.152V368.23c0-2.835 2.32-5.156 5.152-5.156h53.477c2.832 0 5.152 2.32 5.152 5.156zm0 0"/></g><path d="M262.785 365.91c0-24.527 8.067-47.164 21.63-65.305v-6.96c0-2.836-2.321-5.153-5.153-5.153h-53.477c-2.832 0-5.152 2.317-5.152 5.153v107.828c0 2.832 2.32 5.152 5.152 5.152h44.824c-5.039-12.57-7.824-26.316-7.824-40.715zm0 0" fill="#75eae7"/><path d="M475.148 365.91c0 60.125-47.77 108.863-106.683 108.863-58.914 0-106.68-48.738-106.68-108.863 0-60.129 47.766-108.87 106.68-108.87 58.914.003 106.683 48.741 106.683 108.87zm0 0" fill="#fcb400"/><path d="M445.297 365.91c0 43.3-34.402 78.402-76.832 78.402-42.434 0-76.832-35.101-76.832-78.402 0-43.305 34.398-78.41 76.832-78.41 42.43 0 76.832 35.105 76.832 78.41zm0 0" fill="#fcdb67"/><path d="M379.863 357.61h-22.797c-4.445 0-8.062-3.762-8.062-8.383 0-4.622 3.617-8.38 8.062-8.38h29.153a7.5 7.5 0 100-15h-10.254v-7.976a7.5 7.5 0 10-15 0v7.977h-3.899c-12.718 0-23.066 10.488-23.066 23.379 0 12.894 10.348 23.382 23.066 23.382h22.797c4.45 0 8.067 3.762 8.067 8.383 0 4.621-3.617 8.38-8.067 8.38H345.34a7.5 7.5 0 100 15h15.625v4.765a7.5 7.5 0 1015 0v-4.766h3.898c12.719 0 23.07-10.488 23.07-23.379 0-12.894-10.351-23.383-23.07-23.383zm0 0" fill="#775436"/><path d="M256.234 96.035h-3.933c-8.473 0-15.363-6.898-15.363-15.37V60.991c0-8.476 6.89-15.37 15.363-15.37h3.933c8.473 0 15.364 6.894 15.364 15.37v19.672c0 8.477-6.891 15.371-15.364 15.371zm-3.933-35.41c-.2 0-.363.164-.363.367v19.672c0 .203.164.367.363.367h3.933c.2 0 .36-.164.36-.367V60.992a.363.363 0 00-.36-.367zm0 0" fill="#9ea7af"/><path d="M422.867 235.484c-37.258 0-67.574-30.593-67.574-68.199 0-36.523 28.305-66.45 64.437-68.125.043-.004.09-.004.137-.004.77 0 1.512.293 2.074.828.594.567.926 1.352.926 2.172v65.13h64.508c.82 0 1.605.335 2.172.925.562.594.863 1.39.828 2.21-1.645 36.485-31.297 65.063-67.508 65.063zm0 0" fill="#75eae7"/><path d="M447.492 145.766a3 3 0 01-3-3V80.633c0-.82.336-1.602.93-2.168a2.993 2.993 0 012.21-.828c16.829.781 32.68 7.863 44.641 19.945a68.283 68.283 0 0119.723 45.047 2.998 2.998 0 01-3 3.133h-61.504zm0 0" fill="#ffc502"/></svg><svg viewBox="0 0 591.604 591" id="debit-card" xmlns="http://www.w3.org/2000/svg"><path d="M555.879 168.52L449.105 61.543V490.23H592V255.38a122.5 122.5 0 00-36.121-86.86zm0 0" fill="#ffb782"/><path d="M83.457 412.117L2.738 202.57c-8.101-21.035 2.38-44.664 23.426-52.77L407.156 3.048c21.035-8.102 44.664 2.379 52.766 23.426L540.64 236.02c8.101 21.035-2.38 44.664-23.426 52.77l-380.98 146.753c-21.048 8.102-44.665-2.39-52.778-23.426zm0 0" fill="#de4c3c"/><path d="M489.012 101.96L32.195 279.032l30.418 78.961L519.45 181.004zm0 0" fill="#7a4930"/><path d="M.004 265.68V41.129C.004 18.582 18.285.3 40.832.3h408.273c22.547 0 40.829 18.281 40.829 40.828v224.55c0 22.548-18.282 40.829-40.829 40.829H40.832c-22.547 0-40.828-18.281-40.828-40.828zm0 0" fill="#4398d1"/><path d="M449.105.3h-43.378L99.52 306.509h349.585c22.547 0 40.829-18.281 40.829-40.828V41.129C489.934 18.582 471.652.3 449.105.3zm0 0" fill="#3e8cc7"/><path d="M40.832 163.61H81.66v20.413H40.832zm0 0M40.832 224.852H81.66v20.414H40.832zm0 0M224.555 224.852h40.828v20.414h-40.828zm0 0M102.074 163.61h40.824v20.413h-40.824zm0 0M163.313 163.61h40.828v20.413h-40.828zm0 0M224.555 163.61h40.828v20.413h-40.828zm0 0M418.484 41.129h20.414V71.75h-20.414zm0 0M377.656 41.129h20.414V71.75h-20.414zm0 0M336.828 41.129h20.414V71.75h-20.414zm0 0M296.004 41.129h20.41V71.75h-20.41zm0 0" fill="#5eb3d1"/><path d="M408.277 490.23H592v102.067H408.277zm0 0" fill="#88b337"/><path d="M378.32 184.688c-17.312-17.25-45.328-17.2-62.578.113-16.68 16.738-17.258 43.633-1.316 61.078l83.644 91.25c-25.14 44-24.066 98.258 2.785 141.23l7.422 11.871h132.688V347.336zm0 0" fill="#ffb782"/><path d="M438.898 520.852h20.414v20.414h-20.414zm0 0" fill="#6b962a"/><path d="M40.832 106.453V57.461c0-9.023 7.309-16.332 16.332-16.332h48.992c9.024 0 16.328 7.309 16.328 16.332v48.992c0 9.024-7.304 16.332-16.328 16.332H57.164c-9.023 0-16.332-7.308-16.332-16.332zm0 0" fill="#fdb62f"/><path d="M40.832 71.75h30.621v20.414H40.832zm0 0M91.867 71.75h30.617v20.414H91.867zm0 0" fill="#fd7b2f"/><path d="M530.758 347.336a10.187 10.187 0 01-7.215-2.992l-40.828-40.828c-3.918-4.051-3.805-10.512.258-14.434 3.96-3.816 10.226-3.816 14.175 0l40.829 40.828c3.98 3.992 3.98 10.453 0 14.434a10.21 10.21 0 01-7.22 2.992zm0 0" fill="#f2a46f"/></svg><svg viewBox="0 0 128 128" id="durable" xmlns="http://www.w3.org/2000/svg"><path d="M18 93.173h92v6.219H18z" fill="#ca7af3"/><path d="M18 99.392h92V110H18z" fill="#a151d8"/><path d="M62.22 40.275l11.628 11.627-4.42 4.42-11.627-11.627z" fill="#fdbb00"/><path d="M31.954 82.012a6.855 6.855 0 01.119-9.81l27.256-25.968 8.4 8.4-25.965 27.26a6.856 6.856 0 01-9.81.118z" fill="#5a5a5a"/><path d="M93.582 47.638a2.164 2.164 0 00-3.062 0l-1.72-1.725a5.15 5.15 0 01-1.47-3 5.15 5.15 0 00-1.47-3L63.944 18l-3.819 3.82.1.2A12.1 12.1 0 0158 36.062l15.851 15.853a5.15 5.15 0 003 1.47 5.153 5.153 0 013 1.47l1.725 1.725a2.166 2.166 0 000 3.063l4.471 4.471 12-12.005z" fill="#ececf1"/></svg><svg viewBox="0 0 486.404 486.404" id="euro" xmlns="http://www.w3.org/2000/svg"><path d="M486.404 317.919v55.38c0 18.808-50.155 34.482-111.804 34.482s-110.759-15.151-110.759-33.959v-6.269l-1.045-43.886h.522c8.359 16.196 54.335 28.735 109.714 28.735s112.327-15.673 112.327-34.482h1.045z" fill="#e2a63b"/><path d="M371.465 112.074v54.857h-1.045c0 19.331-51.722 34.482-112.849 34.482-23.51.522-47.543-2.09-70.531-7.837l-1.045 1.045c-11.494-9.404-24.555-16.718-38.661-21.42v-1.045l-1.567-57.992c3.657 17.763 52.245 31.869 111.282 31.869s113.371-15.151 113.371-33.959h1.045z" fill="#f4b844"/><path d="M371.465 113.119c0 18.808-51.722 33.959-113.371 33.959s-108.147-14.106-111.804-31.869c0-.522-.522-1.567-.522-2.09 0-18.808 50.155-34.482 112.327-34.482 62.17-.522 113.37 15.151 113.37 34.482z" fill="#fedb41"/><path d="M263.318 323.666l-.522-11.494-1.045-47.02c3.657 17.763 52.245 31.869 111.282 31.869s111.282-15.151 112.849-33.437h.522v54.335h-1.045c0 18.808-50.678 34.482-112.327 34.482-61.648-.001-101.354-12.539-109.714-28.735z" fill="#f4b844"/><path d="M188.608 358.67c14.106-13.061 25.078-29.78 30.824-48.065h2.612c11.494 1.045 22.988 1.567 35.527 1.567h5.224v11.494l1.045 43.886h-5.747c-22.988.522-45.453-2.09-67.918-7.314l-1.567-1.568z" fill="#e2a63b"/><path d="M263.318 260.972v2.612l1.045 48.588h-5.225c-13.061 0-25.078-.522-36.571-1.567h-2.612c3.657-10.971 5.224-22.465 5.224-33.959 0-7.837-1.045-15.151-2.612-22.465h2.612c10.971 1.045 21.943 1.567 33.959 1.567l4.702 2.612c-.522 1.044-.522 2.089-.522 2.612z" fill="#f4b844"/><path d="M187.041 193.576c22.988 5.747 47.02 8.359 70.531 7.837 61.126 0 112.849-15.151 112.849-34.482h1.045v61.649c-56.947 0-103.445 13.584-109.192 30.824l-4.702-2.612c-11.494 0-22.465-.522-32.914-1.567h-2.612c-4.702-24.033-17.241-45.453-36.049-61.127l1.044-.522z" fill="#e2a63b"/><g fill="#fedb41"><path d="M223.09 255.225c-5.224-24.033-18.286-45.975-37.094-62.171-11.494-10.449-25.078-17.763-39.706-21.943-10.449-3.657-21.943-5.224-32.914-5.224C51.204 165.363.526 214.996.004 277.167c-.522 62.171 49.11 112.849 111.282 113.371 28.735 0 55.902-10.449 77.322-29.78 14.629-13.584 25.6-30.824 31.347-49.633 3.657-10.971 5.224-21.943 5.224-33.437.001-7.312-2.089-15.149-2.089-22.463zM485.882 262.539v1.045c-1.567 18.286-52.245 33.437-112.849 33.437s-107.625-14.106-111.282-31.869v-2.612c0-1.045 0-2.09.522-3.135 5.747-17.241 52.245-30.824 109.192-30.824h1.567c61.65-.001 112.85 15.15 112.85 33.958z"/></g><path d="M163.008 330.98c-2.09-5.224-7.837-8.359-13.584-6.269-18.808 7.314-39.706 2.612-53.812-11.494-2.612-2.09-4.702-4.702-6.269-7.837h50.155c5.747 0 10.449-4.702 10.449-10.449s-4.702-10.449-10.449-10.449H81.506c-.522-3.657-.522-6.792-.522-10.449h63.739c5.747 0 10.449-4.702 10.449-10.449s-4.702-10.449-10.449-10.449h-57.47c2.612-4.18 5.224-7.837 8.359-10.971 14.106-14.106 35.004-18.286 53.812-11.494 5.224 2.09 11.494-.522 13.584-5.747 2.09-5.224-.522-11.494-6.269-13.584-26.122-9.926-55.902-3.657-75.755 16.196-7.314 7.314-13.061 16.196-16.718 25.6H50.682c-5.747 0-10.449 4.702-10.449 10.449s4.702 10.449 10.449 10.449h9.404c0 3.657 0 6.792.522 10.449h-9.926c-5.747 0-10.449 4.702-10.449 10.449s4.702 10.449 10.449 10.449h15.151a57.103 57.103 0 0015.151 22.988c19.853 19.853 49.633 26.122 75.755 16.196 5.224-2.09 8.359-7.837 6.269-13.584z" fill="#e2a63b"/></svg><svg viewBox="0 0 112.196 112.196" id="facebook" xmlns="http://www.w3.org/2000/svg"><circle cx="56.098" cy="56.098" r="56.098" fill="#3b5998"/><path d="M70.201 58.294h-10.01v36.672H45.025V58.294h-7.213V45.406h7.213v-8.34c0-5.964 2.833-15.303 15.301-15.303l11.234.047v12.51h-8.151c-1.337 0-3.217.668-3.217 3.513v7.585h11.334l-1.325 12.876z" fill="#fff"/></svg><svg viewBox="0 0 512 512" id="fast" xmlns="http://www.w3.org/2000/svg"><path d="M314.244 453.755c-109.042 0-197.755-88.713-197.755-197.755S205.202 58.245 314.244 58.245C423.287 58.245 512 146.958 512 256s-88.713 197.755-197.756 197.755z" fill="#82d2ff"/><path d="M314.244 453.755V58.244C423.287 58.245 512 146.958 512 256s-88.713 197.755-197.756 197.755z" fill="#08b7fc"/><path d="M314.244 88.245c-92.5 0-167.755 75.255-167.755 167.755s75.254 167.755 167.755 167.755S482 348.5 482 256 406.745 88.245 314.244 88.245z" fill="#f1f1f2"/><path d="M314.244 88.245v335.511C406.745 423.755 482 348.5 482 256S406.745 88.245 314.244 88.245z" fill="#e6e6e6"/><g fill="#ffdb0c"><path d="M27.689 181h58.8v30h-58.8zM27.689 301h58.8v30h-58.8zM0 241h86.49v30H0z"/></g><path fill="#4d4d4d" d="M371.238 331.996l-77.308-52.683V166.557h30v96.897l64.203 43.751z"/></svg><svg viewBox="0 0 512 512" id="firewall" xmlns="http://www.w3.org/2000/svg"><path d="M512 256v-90H0v90h61v30H0v90h61v30H0v90h512v-90h-61v-30h61v-90h-61v-30z" fill="#fed2a4"/><path d="M451 256v30h61v90h-61v30h61v90H256V166h256v90z" fill="#ffbd86"/><path d="M30 316h91v30H30z" fill="#fdbf00"/><path d="M271 316h90v30h-90zM331 376h90v30h-90z" fill="#ff9100"/><g fill="#fdbf00"><path d="M151 316h90v30h-90zM91 376h90v30H91zM211 376h90v30h-90zM91 256h330v30H91zM30 436h91v30H30zM151 436h90v30h-90z"/></g><path d="M271 436h90v30h-90zM391 436h91v30h-91zM391 316h91v30h-91z" fill="#ff9100"/><path d="M30 196h452v30H30z" fill="#fdbf00"/><path d="M256 376h45v30h-45zM256 256h165v30H256zM256 196h226v30H256z" fill="#ff9100"/><path d="M346 46c-8.401 0-15-6.601-15-15V16H181v15c0 8.399-6.599 15-15 15h-45v101.4c0 79.499 54 148.2 131.4 167.699l3.6.901 3.6-.901C337 295.6 391 226.899 391 147.4V46z" fill="#ff637b"/><path d="M391 46v101.4c0 79.499-54 148.2-131.4 167.699L256 316V16h75v15c0 8.399 6.599 15 15 15z" fill="#e63950"/><path d="M321.099 101.8c-11.999-4.2-22.5-11.4-30.899-20.7l-4.5-5.1h-59.4l-4.501 5.099c-8.399 9.3-18.9 16.5-30.899 20.7l-9.901 3.6V147.4c0 45.599 27.001 86.699 69.3 104.399l5.7 2.401 5.7-2.401c42.3-17.7 69.301-58.8 69.301-104.399v-42.001z" fill="#ffda2d"/><path d="M331 105.399V147.4c0 45.599-27.001 86.699-69.3 104.399L256 254.2V76h29.7l4.501 5.099c8.399 9.3 18.9 16.5 30.899 20.7z" fill="#fdbf00"/></svg><svg viewBox="0 0 512 512" id="instagram" xmlns="http://www.w3.org/2000/svg"><circle cx="256" cy="256" r="256" fill="#ef72ad"/><path d="M256 0c-11.317 0-22.461.744-33.391 2.167C348.216 18.53 445.217 125.933 445.217 256s-97.002 237.47-222.609 253.833A258.556 258.556 0 00256 512c141.385 0 256-114.616 256-256S397.385 0 256 0z" fill="#ee539e"/><g fill="#fff"><path d="M350.84 91.826H161.16c-38.231 0-69.334 31.103-69.334 69.334v189.682c0 38.231 31.103 69.334 69.334 69.334h189.682c38.231 0 69.334-31.103 69.334-69.334V161.16c-.002-38.231-31.105-69.334-69.336-69.334zm52.638 259.014c0 29.025-23.613 52.638-52.638 52.638H161.16c-29.025 0-52.638-23.613-52.638-52.638V161.16c0-29.025 23.613-52.638 52.638-52.638h189.682c29.025 0 52.638 23.613 52.638 52.638v189.68h-.002z"/><path d="M256 169.739c-47.565 0-86.261 38.696-86.261 86.261s38.696 86.261 86.261 86.261 86.261-38.696 86.261-86.261-38.696-86.261-86.261-86.261zm0 155.826c-38.358 0-69.565-31.208-69.565-69.565s31.208-69.565 69.565-69.565 69.565 31.208 69.565 69.565-31.207 69.565-69.565 69.565z"/><circle cx="345.043" cy="155.826" r="22.261"/></g></svg><svg viewBox="0 0 512 512" id="mail" xmlns="http://www.w3.org/2000/svg"><path d="M467 61H45c-6.927 0-13.412 1.703-19.279 4.51L255 294.789l51.389-49.387.005-.007.005-.004L486.286 65.514C480.418 62.705 473.929 61 467 61zM507.496 86.728L338.213 256.002 507.49 425.279c2.807-5.867 4.51-12.352 4.51-19.279V106c0-6.923-1.699-13.407-4.504-19.272zM4.51 86.721C1.703 92.588 0 99.073 0 106v300c0 6.923 1.701 13.409 4.506 19.274L173.789 256 4.51 86.721z"/><path d="M317.002 277.213l-51.396 49.393c-2.93 2.93-6.768 4.395-10.605 4.395s-7.676-1.465-10.605-4.395L195 277.211 25.714 446.486C31.582 449.295 38.071 451 45 451h422c6.927 0 13.412-1.703 19.279-4.51L317.002 277.213z"/></svg><svg viewBox="0 0 97.713 97.713" id="map" xmlns="http://www.w3.org/2000/svg"><path d="M48.855 0C29.021 0 12.883 16.138 12.883 35.974c0 5.174 1.059 10.114 3.146 14.684 8.994 19.681 26.238 40.46 31.31 46.359a2.003 2.003 0 003.034 0c5.07-5.898 22.314-26.676 31.311-46.359 2.088-4.57 3.146-9.51 3.146-14.684C84.828 16.138 68.69 0 48.855 0zm0 54.659c-10.303 0-18.686-8.383-18.686-18.686 0-10.304 8.383-18.687 18.686-18.687s18.686 8.383 18.686 18.687c.001 10.303-8.382 18.686-18.686 18.686z"/></svg><svg viewBox="0 -31 512 512" id="nature" xmlns="http://www.w3.org/2000/svg"><path d="M301 345.012v89.199h-90v-89.2c0-8.398 6.598-15 15-15h60c8.402 0 15 6.602 15 15zm0 0" fill="#d97f4a"/><path d="M301 345.012v89.199h-45v-104.2h30c8.402 0 15 6.602 15 15zm0 0" fill="#d55f05"/><path d="M452 15.012v60c0 56.304-43.492 97.797-86.7 103.199-.425.215-10.355 1.8-18.3 1.8-26.7 0-50.8 14.102-64.3 35.102h-53.4c-13.5-21-37.6-35.101-64.3-35.101-60.477 0-105-48.465-105-105v-60c0-6 3.602-11.399 9.3-13.801 5.7-2.399 12-1.2 16.2 3.3l38.7 38.7c11.1 10.8 25.5 16.8 40.8 16.8 38.402 0 72.7 21 91 51.9 18.3-30.9 52.598-51.9 91-51.9 15.3 0 29.7-6 40.8-16.8l38.7-38.7c4.2-4.5 10.5-5.699 16.2-3.3 5.698 2.402 9.3 7.8 9.3 13.8zm0 0" fill="#6b0"/><path d="M282.7 215.113H256V111.914c18.3-30.902 52.598-51.902 91-51.902 15.3 0 29.7-6 40.8-16.797l38.7-38.703c4.2-4.5 10.5-5.7 16.2-3.301 5.698 2.402 9.3 7.8 9.3 13.8v60c0 56.305-43.492 97.798-86.7 103.204-.425.21-10.355 1.797-18.3 1.797-26.7 0-50.8 14.101-64.3 35.101zm0 0" fill="#009954"/><path d="M482 105.012v60c0 57.902-47.102 105-105 105h-30c-29.398 0-55.602 17.101-67.898 42h-46.204c-12.296-24.899-38.5-42-67.898-42h-30c-57.898 0-105-47.098-105-105v-60c0-5.399 3-10.5 7.8-13.2 5.098-2.699 10.802-2.402 15.602.598l65.098 43.5c13.293 9.496 33.594 14.102 46.5 14.102 38.402 0 72.7 21 91 51.898 18.3-30.898 52.602-51.898 91-51.898 6.36 0 10.668-1.2 12.902-1.2 14.578-4.832 17.301-1.539 33.598-12.601l65.102-43.8c4.8-2.997 10.5-3.298 15.597-.599 4.801 2.7 7.801 7.801 7.801 13.2zm0 0" fill="#9cdd05"/><path d="M482 105.012v60c0 57.902-47.102 105-105 105h-30c-29.398 0-55.602 17.101-67.898 42H256V201.91c18.3-30.898 52.598-51.898 91-51.898 6.36 0 10.668-1.2 12.898-1.2 14.582-4.832 17.301-1.539 33.602-12.601l65.098-43.8c4.8-2.997 10.504-3.298 15.601-.599 4.801 2.7 7.801 7.801 7.801 13.2zm0 0" fill="#6b0"/><path d="M504.2 181.813c-5.098-2.7-10.802-2.403-15.602.597l-75 50.102c-7.2 4.8-15.899 7.5-24.899 7.5H347c-38.402 0-72.7 21-91 51.898-18.3-30.898-52.598-51.898-91-51.898h-41.7c-9 0-17.698-2.7-24.898-7.801l-75-49.8c-4.8-2.997-10.504-3.298-15.601-.598C3 184.512 0 189.613 0 195.012v60c0 57.902 47.102 105 105 105h302c57.898 0 105-47.098 105-105v-60c0-5.399-3-10.5-7.8-13.2zm0 0" fill="#c3ea21"/><path d="M512 195.012v60c0 57.902-47.102 105-105 105H256V291.91c18.3-30.898 52.598-51.898 91-51.898h41.7c9 0 17.698-2.7 24.898-7.5l75-50.102c4.8-2.996 10.504-3.297 15.601-.598 4.801 2.7 7.801 7.801 7.801 13.2zm0 0" fill="#9cdd05"/><path d="M391 436.012c0 8.398-6.598 15-15 15H136c-8.402 0-15-6.602-15-15 0-8.399 6.598-15 15-15h240c8.402 0 15 6.601 15 15zm0 0" fill="#c3ea21"/><path d="M391 436.012c0 8.398-6.598 15-15 15H256v-30h120c8.402 0 15 6.601 15 15zm0 0" fill="#9cdd05"/></svg><svg viewBox="0 0 492.004 492.004" id="next" xmlns="http://www.w3.org/2000/svg"><path d="M382.678 226.804L163.73 7.86C158.666 2.792 151.906 0 144.698 0s-13.968 2.792-19.032 7.86l-16.124 16.12c-10.492 10.504-10.492 27.576 0 38.064L293.398 245.9l-184.06 184.06c-5.064 5.068-7.86 11.824-7.86 19.028 0 7.212 2.796 13.968 7.86 19.04l16.124 16.116c5.068 5.068 11.824 7.86 19.032 7.86s13.968-2.792 19.032-7.86L382.678 265c5.076-5.084 7.864-11.872 7.848-19.088.016-7.244-2.772-14.028-7.848-19.108z"/></svg><svg data-name="Layer 1" viewBox="0 0 512 512" id="order" xmlns="http://www.w3.org/2000/svg"><g data-name="Group 2"><path d="M496 254.18v202.1a23.091 23.091 0 01-23.08 23.09H335.89a23.084 23.084 0 01-23.08-23.09v-202.1a23.076 23.076 0 0123.08-23.08h31.17v.07a17.156 17.156 0 0017.16 17.16h40.37a17.156 17.156 0 0017.16-17.16v-.07h31.17A23.082 23.082 0 01496 254.18zM376.92 382.13v-32.98h-32.97v32.98z" fill="#f8ec7d"/><path d="M367.06 231.1v-1.05a17.156 17.156 0 0117.16-17.16h40.37a17.156 17.156 0 0117.16 17.16v1.12a17.156 17.156 0 01-17.16 17.16h-40.37a17.156 17.156 0 01-17.16-17.16z" fill="#6fe3ff"/><path d="M391.31 140.98v71.91h-7.09a17.156 17.156 0 00-17.16 17.16v1.05h-31.17a23.076 23.076 0 00-23.08 23.08v148.8L203.65 466V249.3l187.64-108.33z" fill="#c16752"/><path fill="#af593c" d="M203.65 249.3l-95.66-55.23L295.62 85.73h.01l95.66 55.24L203.65 249.3z"/><path fill="#6fe3ff" d="M343.95 349.15h32.97v32.98h-32.97z"/><path fill="#c16752" d="M295.62 85.73L107.99 194.07l-91.97-53.1L203.65 32.63l91.97 53.1z"/><path fill="#e48e66" d="M203.65 249.3V466L16 357.66V140.98l.02-.01 91.97 53.1 95.66 55.23z"/><path d="M351.28 325.01h-7.33a7 7 0 01-7-7v-32.98a7 7 0 017-7h32.97a7 7 0 017 7v4.71a7 7 0 01-13.617 2.29H350.95v18.98h.33a7 7 0 010 14zM351.28 453.24h-7.33a7 7 0 01-7-7v-32.97a7 7 0 017-7h32.97a7 7 0 017 7v6.74a7 7 0 01-14 .26h-18.97v18.97h.33a7 7 0 010 14z" fill="#6fe3ff"/><path d="M372.54 323.99a6.972 6.972 0 01-4.947-2.048l-11.193-11.18a7 7 0 119.9-9.9l6.241 6.235 20.5-20.5a7 7 0 119.9 9.9l-25.45 25.45a6.979 6.979 0 01-4.951 2.043zM372.54 453.24a6.972 6.972 0 01-4.947-2.048l-11.193-11.18a7 7 0 119.9-9.9l6.241 6.235 20.5-20.5a7 7 0 119.9 9.9l-25.45 25.45a6.979 6.979 0 01-4.951 2.043z" fill="#2561a1"/><path d="M464.86 308.52h-43.97a7 7 0 010-14h43.97a7 7 0 010 14zM464.86 372.64h-43.97a7 7 0 010-14h43.97a7 7 0 010 14zM464.86 436.76h-43.97a7 7 0 010-14h43.97a7 7 0 010 14z" fill="#e48e66"/></g></svg><svg viewBox="0 0 512 512" id="plastic" xmlns="http://www.w3.org/2000/svg"><path d="M466.7 434.599c.901 4.2-.3 8.699-3.3 12.001-2.701 3.6-6.899 5.4-11.4 5.4H60c-4.501 0-8.699-1.8-11.4-5.4-2.999-3.301-4.2-7.8-3.3-12.001l15-90v-.3l.601.3 42.9-12.599h322.4l24.899 12.599.601-.3v.3l14.999 90z" fill="#1ba9ef"/><g fill="#1689fc"><path d="M466.7 434.599c.901 4.2-.3 8.699-3.3 12.001-2.701 3.6-6.899 5.4-11.4 5.4H256V332h170.2l24.899 12.599.601-.3v.3l15 90z"/><path d="M345.7 434.599c.901 4.2-.3 8.699-3.3 12.001-2.701 3.6-6.899 5.4-11.4 5.4H181c-4.501 0-8.699-1.8-11.4-5.4-2.999-3.301-4.2-7.8-3.3-12.001l15-90L213.701 332h84.598l32.401 12.599 15 90z"/></g><path d="M330.7 344.599l15 90c.901 4.2-.3 8.699-3.3 12.001-2.701 3.6-6.899 5.4-11.4 5.4h-75V332h42.299l32.401 12.599z" fill="#136ef1"/><path d="M451.099 344.599H60.901c.599-3.9 2.399-7.8 5.698-10.201l181-120L256 230.6l1.5 2.999 6.901-19.2 181 120c3.299 2.4 5.099 6.3 5.698 10.2z" fill="#1de8f1"/><path d="M451.099 344.599H256v-114l1.5 2.999 6.901-19.2 181 120c3.299 2.401 5.099 6.301 5.698 10.201z" fill="#1bd9de"/><path d="M271 135v92c0 8.399-6.599 15-15 15s-15-6.601-15-15v-92c0-8.401 6.599-15 15-15s15 6.599 15 15z" fill="#1de8f1"/><path d="M256 242V120c8.401 0 15 6.599 15 15v92c0 8.399-6.599 15-15 15z" fill="#20d3d3"/><path d="M328.9 67.2c-2.999-4.501-7.8-7.2-12.9-7.2H196c-11.1 0-18.3 11.7-13.5 21.599l30 60C215.2 146.7 220.3 150 226 150h60c5.7 0 10.8-3.3 13.5-8.401l30-60c2.101-4.499 2.101-10.199-.6-14.399z" fill="#ff4a4a"/><path d="M286 150h-30V60h60c5.099 0 9.901 2.699 12.9 7.2 2.701 4.2 2.701 9.901.601 14.399l-30 60C296.8 146.7 291.7 150 286 150z" fill="#e61e14"/><path d="M361 19.499V45c0 24.899-20.099 45-45 45H196c-24.901 0-45-20.101-45-45V19.499h210z" fill="#57555c"/><path d="M361 19.499V45c0 24.899-20.099 45-45 45h-60V19.499h105z" fill="#3c3a41"/><path d="M512 15c0 8.399-6.599 15-15 15H15C6.599 30 0 23.399 0 15 0 6.599 6.599 0 15 0h482c8.401 0 15 6.599 15 15z" fill="#787780"/><path d="M497 30H256V0h241c8.401 0 15 6.599 15 15 0 8.399-6.599 15-15 15z" fill="#57555c"/><path d="M330.399 344.599H181.601c.3-1.5.3-2.999.899-4.2l60-120c2.701-5.099 8.101-7.8 13.5-7.8 5.399 0 10.8 2.701 13.5 7.8l60 120c.599 1.201.599 2.701.899 4.2z" fill="#1bd9de"/><path d="M330.399 344.599H256v-132c5.4 0 10.8 2.701 13.5 7.8l60 120c.599 1.201.599 2.701.899 4.2z" fill="#20d3d3"/><path d="M467 422H45c-24.901 0-45 20.099-45 45v30c0 8.399 6.599 15 15 15h482c8.401 0 15-6.601 15-15v-30c0-24.901-20.099-45-45-45z" fill="#57555c"/><path d="M512 467v30c0 8.399-6.599 15-15 15H256v-90h211c24.901 0 45 20.099 45 45z" fill="#3c3a41"/></svg><svg viewBox="0 0 64 64" id="putty-knife" xmlns="http://www.w3.org/2000/svg"><path d="M62 49.998c.55 0 1 .45 1 1V54c0 .55-.45 1-1 1H2c-.55 0-1-.45-1-1v-3.002c0-.55.45-1 1-1z" fill="#e6e9ed"/><path d="M1 42h62v10H1z" fill="#ccd1d9"/><path d="M60 32c1.66 0 3 1.352 3 3.01V42H1v-6.99c0-1.658 1.34-3 3-3V32z" fill="#4a89dc"/><g fill="#5d9cec"><path d="M48 32v4.999l-1 1.011H17l-1-1.011V32c.01-1.1.89-1.99 2-1.99h4c2.21 0 4-1.789 4-4V15c0-3.309 2.69-6 6-6s6 2.691 6 6v11.01c0 2.211 1.79 4 4 4h4c1.11 0 1.99.89 2 1.99zM34 15c0-1.1-.9-2-2-2s-2 .9-2 2c0 1.111.9 2 2 2s2-.889 2-2z"/><circle cx="17" cy="37" r="1"/><circle cx="47" cy="37" r="1"/></g></svg><svg viewBox="0 0 512 512" id="question" xmlns="http://www.w3.org/2000/svg"><path d="M475.454 0H339.86c-14.366 0-26.012 11.646-26.012 26.012v135.594c0 14.366 11.646 26.012 26.012 26.012h24.329c7.084 0 12.826 5.742 12.826 12.826v21.936c0 4.609 5.833 6.606 8.659 2.966l25.568-32.947a12.356 12.356 0 019.761-4.781h54.452c14.366 0 26.012-11.646 26.012-26.012V26.012C501.467 11.646 489.82 0 475.454 0z" fill="#f7e365"/><path d="M475.454 0h-28.101c14.366 0 26.012 11.646 26.012 26.012v135.594c0 14.366-11.646 26.012-26.012 26.012h28.101c14.366 0 26.012-11.646 26.012-26.012V26.012C501.467 11.646 489.82 0 475.454 0z" fill="#f3d332"/><path d="M307.163 512H33.25l3.769-51.734c2.308-31.66 26.14-57.544 57.511-62.451l21.691-3.401c11.029-1.717 19.148-11.219 19.148-22.371v-79.625h81.387v79.625c0 11.152 8.13 20.654 19.148 22.371l21.702 3.401c31.359 4.907 55.202 30.791 57.5 62.451l2.919 40.054c.459 6.309-4.536 11.68-10.862 11.68z" fill="#faa68e"/><path d="M116.658 443.8a8.223 8.223 0 017.958-6.154h34.19c18.52 0 33.534-15.014 33.534-33.534v-14.096a5.978 5.978 0 015.977-5.978h21.897a22.55 22.55 0 01-3.46-11.996v-23.691h-71.889c-3.847 0-6.1-4.327-3.892-7.472l14.408-20.587a17.21 17.21 0 003.134-10.516 17.34 17.34 0 00-7.171-13.617l-.368-.268a18.07 18.07 0 00-15.609-2.769v78.918c0 11.152-8.119 20.654-19.148 22.371l-21.691 3.401a68.108 68.108 0 00-37.623 19.083l-23.243 89.418L33.25 512h65.679z" fill="#e09380"/><path d="M307.163 512H33.25l3.769-51.734c2.308-31.66 26.14-57.544 57.511-62.451l21.691-3.401a23.354 23.354 0 004.438-1.16c13.394 14.486 33.066 23.642 54.99 23.642 22.048 0 41.809-9.245 55.213-23.876a22.748 22.748 0 005.041 1.394l21.702 3.401c31.359 4.907 55.202 30.791 57.5 62.451l2.919 40.054c.458 6.301-4.538 11.68-10.861 11.68z" fill="#acd980"/><path d="M124.617 437.646h34.19c14.533 0 26.904-9.247 31.558-22.178a77.233 77.233 0 01-14.715 1.427c-21.925 0-41.597-9.156-54.99-23.642-13.108 4.861-40.356.326-63.752 23.644l-23.243 89.418L33.25 512h65.679l17.729-68.2a8.223 8.223 0 017.959-6.154zM318.024 500.32l-2.919-40.054a68.079 68.079 0 00-17.852-41.258c-23.399-25.411-52.455-21.128-65.297-25.58-.05-.017-.098-.038-.148-.055a22.694 22.694 0 01-.946-.353 71.916 71.916 0 01-7.378 6.96l5.91.926c31.359 4.907 55.202 30.791 57.5 62.451l2.918 40.053c.244 3.354-1.062 6.433-3.281 8.591h20.631c6.327-.001 11.322-5.372 10.862-11.681z" fill="#8cc951"/><path d="M263.796 464.978a7.725 7.725 0 00-7.726 7.726V512h15.453v-39.296a7.727 7.727 0 00-7.727-7.726z" fill="#8cc951"/><g fill="#544f56"><path d="M402.754 128.11a7.725 7.725 0 01-7.726-7.726V93.95a7.726 7.726 0 017.726-7.726h4.903c11.235 0 20.375-9.14 20.375-20.375s-9.14-20.375-20.375-20.375c-11.234 0-20.374 9.14-20.374 20.375a7.726 7.726 0 11-15.452 0c0-19.756 16.071-35.827 35.827-35.827s35.828 16.072 35.828 35.827c0 18.805-14.564 34.274-33.005 35.718v18.817a7.728 7.728 0 01-7.727 7.726zM402.754 157.598a7.725 7.725 0 01-7.726-7.726v-2.263a7.726 7.726 0 1115.452 0v2.263a7.726 7.726 0 01-7.726 7.726z"/></g><path d="M190.637 34.401h-34.539c-40.198 0-75.264 21.963-93.859 54.543-25.852 6.772-44.696 30.666-43.887 58.664l2.983 103.172h302.2v-83.481c0-73.397-59.501-132.898-132.898-132.898z" fill="#655e67"/><g fill="#faa68e"><path d="M86.906 268.149h-53.23c-12.781 0-23.143-10.361-23.143-23.143v-7.256c0-12.781 10.361-23.143 23.143-23.143h53.23zM258.22 268.149h53.23c12.781 0 23.143-10.361 23.143-23.143v-7.256c0-12.781-10.361-23.143-23.143-23.143h-53.23z"/><path d="M297.568 232.541c0 76.278-76.955 120.066-121.915 120.066-44.948 0-121.915-43.788-121.915-120.066 0-48.725 13.544-85.602 35.459-110.332 4.931-5.564 13.618-5.508 18.543.062 5.01 5.666 10.285 11.079 16.03 16.012 6.766 5.812 14.753 11.116 23.658 11.213 5.945.072 12.109-3.115 15.312-7.879 2.652-3.945 7.914-5.162 12.221-3.15 28.392 13.268 59.719 21.4 91.128 23.157 12.63.707 23.373 9.618 26.233 21.94 3.414 14.712 5.246 31.043 5.246 48.977z"/></g><path d="M292.321 183.564c-2.273-9.792-9.531-17.413-18.751-20.491 2.753 13.629 4.224 28.546 4.224 44.75 0 77.89-78.581 122.602-124.491 122.602-21.35 0-49.772-9.68-74.07-27.869 26.459 32.399 67.887 50.05 96.42 50.05 44.96 0 121.915-43.788 121.915-120.066 0-17.933-1.832-34.264-5.247-48.976z" fill="#e09380"/><path d="M76.903 512l22.229-85.509a8.292 8.292 0 018.025-6.205h34.137c18.52 0 33.534-15.014 33.534-33.534v-14.096a5.977 5.977 0 015.977-5.977h33.333c9.869 0 18.222-7.818 18.3-17.687a17.769 17.769 0 00-5.219-12.769 17.792 17.792 0 00-12.624-5.23h-87.242c-3.847 0-6.1-4.327-3.892-7.472l14.408-20.587a17.217 17.217 0 003.134-10.516 17.34 17.34 0 00-7.171-13.617l-.368-.268c-8.13-5.899-19.416-4.104-25.248 3.981-10.292 14.275-55.536 76.916-60.008 83.116L12.571 502.727c-1.22 4.693 2.322 9.273 7.171 9.273z" fill="#f9b1a0"/><g fill="#444145"><path d="M140.106 240.658a7.5 7.5 0 007.5-7.5v-8.374a7.5 7.5 0 00-15 0v8.374a7.5 7.5 0 007.5 7.5zM252.184 240.658a7.5 7.5 0 007.5-7.5v-8.374a7.5 7.5 0 00-15 0v8.374a7.5 7.5 0 007.5 7.5zM183.209 277.559c10.226-5.965 19.749-5.965 29.975 0a7.497 7.497 0 0010.257-2.7 7.5 7.5 0 00-2.7-10.257c-14.749-8.604-30.341-8.604-45.09 0a7.5 7.5 0 107.558 12.957z"/></g></svg><svg viewBox="-3 0 512 512" id="sticker" xmlns="http://www.w3.org/2000/svg"><path d="M95.586 297.512L0 436.918l92.29-17.211L109.5 512l90.746-132.348zm0 0" fill="#f57f41"/><path d="M410.379 297.512l-104.66 82.14L396.469 512l17.207-92.293 92.289 17.211zm0 0" fill="#ea623c"/><path d="M252.98 0C139.29 0 46.793 92.5 46.793 206.203c0 113.7 92.496 206.2 206.187 206.2 113.696 0 206.196-92.5 206.196-206.204C459.176 92.5 366.676 0 252.98 0zm0 0" fill="#ffe07f"/><path d="M252.98 0v412.402c113.696 0 206.196-92.5 206.196-206.203C459.176 92.5 366.676 0 252.98 0zm0 0" fill="#ffd23a"/><path d="M216.227 294.164l-70.399-70.402 21.336-21.336 49.063 49.062L338.8 128.91l21.336 21.336zm0 0" fill="#1d608b"/><path d="M252.98 257.5l107.157-107.254L338.8 128.91l-85.82 85.82zm0 0" fill="#0d3954"/></svg><svg viewBox="0 0 64 64" id="tracking" xmlns="http://www.w3.org/2000/svg"><path d="M45 37a1 1 0 01-1-1v-9a1 1 0 011-1h7l-3.41-3.41a2.006 2.006 0 00-1.42-.59H11v24a2.006 2.006 0 002 2h46a2.006 2.006 0 002-2v-9z" fill="#3d9ae2"/><path d="M27 22a12 12 0 01-12 12 11.8 11.8 0 01-4-.69A12 12 0 1127 22z" fill="#ffd422"/><path d="M21 20c0 4-6 10-6 10s-6-6-6-10a6 6 0 0112 0z" fill="#ff6243"/><circle cx="15" cy="20" r="2" fill="#ffa733"/><path d="M61 35v2H45a1 1 0 01-1-1v-9a1 1 0 011-1h7z" fill="#e6e7e8"/><path d="M11 39h50v7a2 2 0 01-2 2H13a2 2 0 01-2-2v-7z" fill="#78b9eb"/><circle cx="22" cy="48" r="6" fill="#787680"/><circle cx="50" cy="48" r="6" fill="#787680"/><path fill="#57565c" d="M21 47h2v2h-2zM49 47h2v2h-2zM2 53h59v2H2z"/><path fill="#c6c5ca" d="M2 44h5v2H2zM4 40h3v2H4zM5 36h2v2H5z"/><path fill="#1e81ce" d="M35 22h2v16h-2zM40 40h4v2h-4z"/></svg><svg viewBox="0 0 112.196 112.196" id="vk" xmlns="http://www.w3.org/2000/svg"><circle cx="56.098" cy="56.098" r="56.098" fill="#4d76a1"/><path d="M53.979 80.702h4.403s1.33-.146 2.009-.878c.625-.672.605-1.934.605-1.934s-.086-5.908 2.656-6.778c2.703-.857 6.174 5.71 9.853 8.235 2.782 1.911 4.896 1.492 4.896 1.492l9.837-.137s5.146-.317 2.706-4.363c-.2-.331-1.421-2.993-7.314-8.463-6.168-5.725-5.342-4.799 2.088-14.702 4.525-6.031 6.334-9.713 5.769-11.29-.539-1.502-3.867-1.105-3.867-1.105l-11.076.069s-.821-.112-1.43.252c-.595.357-.978 1.189-.978 1.189s-1.753 4.667-4.091 8.636c-4.932 8.375-6.904 8.817-7.71 8.297-1.875-1.212-1.407-4.869-1.407-7.467 0-8.116 1.231-11.5-2.397-12.376-1.204-.291-2.09-.483-5.169-.514-3.952-.041-7.297.012-9.191.94-1.26.617-2.232 1.992-1.64 2.071.732.098 2.39.447 3.269 1.644 1.135 1.544 1.095 5.012 1.095 5.012s.652 9.554-1.523 10.741c-1.493.814-3.541-.848-7.938-8.446-2.253-3.892-3.954-8.194-3.954-8.194s-.328-.804-.913-1.234c-.71-.521-1.702-.687-1.702-.687l-10.525.069s-1.58.044-2.16.731c-.516.611-.041 1.875-.041 1.875s8.24 19.278 17.57 28.993c8.555 8.907 18.27 8.322 18.27 8.322z" fill-rule="evenodd" clip-rule="evenodd" fill="#fff"/></svg></svg>